<svg id="e8i6yazdyb0r1" xmlns="http://www.w3.org/2000/svg" xmlns:xlink="http://www.w3.org/1999/xlink" viewBox="0 0 125.145000 227.103000" shape-rendering="geometricPrecision" text-rendering="geometricPrecision"><style><![CDATA[#e8i6yazdyb0r11 {animation: e8i6yazdyb0r11_c_o 3000ms linear 1 normal forwards}@keyframes e8i6yazdyb0r11_c_o { 0% {opacity: 0} 23.333333% {opacity: 0.800000} 33.333333% {opacity: 0} 100% {opacity: 0} }#e8i6yazdyb0r12 {animation: e8i6yazdyb0r12_c_o 3000ms linear 1 normal forwards}@keyframes e8i6yazdyb0r12_c_o { 0% {opacity: 0.100000} 23.333333% {opacity: 0.800000} 33.333333% {opacity: 0} 100% {opacity: 0} }]]></style><g id="e8i6yazdyb0r2" transform="matrix(1 0 0 1 -13.85500000000000 -1)"><ellipse id="e8i6yazdyb0r3" rx="48" ry="2.500000" transform="matrix(1 0 0 1 61.85500000000000 225.60300000000001)" opacity="0.3" fill="rgb(0,0,0)" stroke="none" stroke-width="1"/><path id="e8i6yazdyb0r4" d="M19.561000,111.103000L133.938000,111.103000L116.777000,226.103000L39.086000,225.870000L35.086000,224.076000L19.561000,111.103000Z" fill="rgb(255,141,57)" stroke="none" stroke-width="1"/><path id="e8i6yazdyb0r5" d="M19.561000,124.103000L133.938000,124.103000L116.777000,196.982000L39.086000,196.834000L35.086000,195.697000L19.561000,124.103000Z" fill="rgb(255,195,150)" stroke="none" stroke-width="1"/><path id="e8i6yazdyb0r6" d="M136.015000,92.052000L130.808000,92.052000L124.339000,75.972000C123.883000,74.842000,122.787000,74.102000,121.568000,74.103000L31.288000,74.103000C30.069000,74.102000,28.973000,74.842000,28.517000,75.972000L22.046000,92.052000L16.846000,92.052000C15.197000,92.052000,13.861000,93.388000,13.861000,95.037000L13.861000,95.037000L13.861000,110.890000C13.861000,112.539000,15.197000,113.875000,16.846000,113.875000L16.846000,113.875000L21.546000,113.875000L23.125000,126.160000L19.979000,126.160000C18.330000,126.154000,16.989000,127.485000,16.983000,129.134000C16.982000,129.291000,16.994000,129.448000,17.018000,129.603000L27.810000,199.236000C28.035000,200.691000,29.287000,201.765000,30.760000,201.765000L32.841000,201.765000L35.665000,223.759000C35.859000,225.247000,37.127000,226.360000,38.627000,226.359000L114.346000,226.359000C115.846000,226.360000,117.114000,225.247000,117.308000,223.759000L120.132000,201.766000L122.201000,201.766000C123.673000,201.766000,124.926000,200.693000,125.151000,199.238000L135.931000,129.603000C136.183000,127.974000,135.067000,126.449000,133.438000,126.196000C133.286000,126.172000,133.132000,126.161000,132.978000,126.161000L129.846000,126.161000L131.425000,113.876000L136.020000,113.876000C137.669000,113.876000,139.005000,112.540000,139.005000,110.891000L139.005000,110.891000L139.005000,95.037000C139.005000,93.388000,137.669000,92.052000,136.020000,92.052000C136.018000,92.052000,136.017000,92.052000,136.015000,92.052000ZM33.303000,80.074000L119.553000,80.074000L124.372000,92.052000L28.485000,92.052000L33.303000,80.074000ZM111.719000,220.391000L41.239000,220.391000L38.846000,201.764000L114.109000,201.764000L111.719000,220.391000ZM119.642000,195.791000L33.318000,195.791000L23.466000,132.131000L129.498000,132.131000L119.642000,195.791000ZM123.822000,126.158000L29.139000,126.158000L27.562000,113.875000L125.390000,113.875000L123.822000,126.158000ZM133.030000,107.903000L19.827000,107.903000L19.827000,98.022000L133.027000,98.022000L133.030000,107.903000Z" opacity="0.8" fill="rgb(0,0,0)" stroke="none" stroke-width="1"/><path id="e8i6yazdyb0r7" d="M81.365000,83.077000L71.489000,83.077000C69.840000,83.077000,68.503000,84.414000,68.503000,86.063000C68.503000,87.712000,69.840000,89.048000,71.489000,89.048000L81.365000,89.048000C83.014000,89.048000,84.351000,87.711000,84.351000,86.063000C84.351000,84.414000,83.014000,83.077000,81.365000,83.077000Z" opacity="0.8" fill="rgb(0,0,0)" stroke="none" stroke-width="1"/><path id="e8i6yazdyb0r8" d="M89.831000,162.619000L63.031000,162.619000C61.382000,162.619000,60.046000,163.955000,60.046000,165.604000C60.046000,174.654000,67.383000,181.991000,76.433000,181.991000C85.483000,181.991000,92.820000,174.654000,92.820000,165.604000C92.820000,163.955000,91.484000,162.619000,89.835000,162.619000C89.834000,162.619000,89.832000,162.619000,89.831000,162.619000Z" opacity="0.8" fill="rgb(0,0,0)" stroke="none" stroke-width="1"/><path id="e8i6yazdyb0r9" d="M101.852000,156.857000C98.975000,157.250000,96.159000,155.807000,94.797000,153.242000C94.011000,151.792000,92.198000,151.254000,90.749000,152.040000C89.327000,152.811000,88.777000,154.575000,89.510000,156.018000C91.744000,160.305000,96.207000,162.963000,101.040000,162.885000C101.658000,162.888000,102.275000,162.839000,102.885000,162.739000C104.504000,162.425000,105.561000,160.857000,105.247000,159.239000C104.941000,157.661000,103.440000,156.609000,101.852000,156.858000L101.852000,156.857000Z" opacity="0.8" fill="rgb(0,0,0)" stroke="none" stroke-width="1"/><path id="e8i6yazdyb0r10" d="M63.345000,156.018000C64.141000,154.574000,63.615000,152.759000,62.171000,151.963000C60.727000,151.167000,58.912000,151.693000,58.116000,153.137000C58.097000,153.172000,58.078000,153.207000,58.061000,153.242000C56.702000,155.810000,53.882000,157.255000,51.003000,156.857000C49.379000,156.573000,47.832000,157.659000,47.547000,159.283000C47.262000,160.907000,48.349000,162.454000,49.973000,162.739000C50.582000,162.839000,51.198000,162.888000,51.815000,162.885000C56.648000,162.960000,61.109000,160.303000,63.345000,156.018000Z" opacity="0.8" fill="rgb(0,0,0)" stroke="none" stroke-width="1"/></g><path id="e8i6yazdyb0r11" d="M59.263000,64.885000C59.263000,64.885000,48.456000,63.125000,49.613000,53.060000C50.770000,42.995000,58.812000,37.278000,52.900000,27.700000" transform="matrix(1 0 0 1 0.25334383500000 0.00000000000001)" opacity="0" fill="none" stroke="rgb(0,0,0)" stroke-width="5" stroke-linecap="round" stroke-miterlimit="10" stroke-dashoffset="43.640000" stroke-dasharray="43.640000"/><path id="e8i6yazdyb0r12" d="M76.263000,64.885000C76.263000,64.885000,65.456000,63.125000,66.613000,53.060000C67.770000,42.995000,75.812000,37.278000,69.900000,27.700000C63.988000,18.122000,76.263000,5.546000,76.263000,5.546000" opacity="0.1" fill="none" stroke="rgb(0,0,0)" stroke-width="5" stroke-linecap="round" stroke-miterlimit="10" stroke-dashoffset="10" stroke-dasharray="40"/></svg>